<svg xmlns="http://www.w3.org/2000/svg" viewBox="0 0 48 48">
  <path fill="#7A4A2B" d="M24 4c1 4.2 3.4 6.8 7.2 10 4.6 3.9 8.3 8.6 8.3 14.6C39.5 37.6 32.6 44 24 44S8.5 37.6 8.5 28.6c0-6 3.7-10.7 8.3-14.6C20.6 10.8 23 8.2 24 4z"></path>
  <path fill="#C9A15F" d="M13.2 34.5c2.6 3.1 6.4 5 10.8 5s8.2-1.9 10.8-5c.5 1.9-.1 4.1-1.9 5.9C30.6 42.7 27.5 44 24 44s-6.6-1.3-8.9-3.6c-1.8-1.8-2.4-4-1.9-5.9z"></path>
  <path fill="#55793F" d="M24 4c.5 2.1 1.4 3.9 2.7 5.6-1 .9-2 1.4-2.7 1.6-.7-.2-1.7-.7-2.7-1.6C22.6 7.9 23.5 6.1 24 4z"></path>
</svg>
